<svg width="16" height="16" fill="none" xmlns="http://www.w3.org/2000/svg"><g clip-path="url(#a)"><path d="M5.033 14.5c6.037 0 9.34-5.002 9.34-9.339 0-.14-.004-.284-.01-.425A6.667 6.667 0 0 0 16 3.037a6.472 6.472 0 0 1-1.884.516 3.3 3.3 0 0 0 1.443-1.816 6.599 6.599 0 0 1-2.083.797A3.287 3.287 0 0 0 7.88 5.527 9.323 9.323 0 0 1 1.115 2.1a3.286 3.286 0 0 0 1.016 4.38 3.287 3.287 0 0 1-1.487-.41v.041a3.281 3.281 0 0 0 2.634 3.22c-.483.131-.99.15-1.481.055a3.289 3.289 0 0 0 3.065 2.282A6.583 6.583 0 0 1 0 13.026 9.312 9.312 0 0 0 5.033 14.5z" fill="#161722"/></g><defs><clipPath id="a"><path fill="#fff" d="M0 0h16v16H0z"/></clipPath></defs></svg>