<svg width="25" height="26" fill="none" xmlns="http://www.w3.org/2000/svg"><g clip-path="url(#a)"><path d="M23.15 0H1.845C.826 0 0 .838 0 1.874V24.12C0 25.157.825 26 1.846 26h21.303C24.17 26 25 25.157 25 24.126V1.874C25 .838 24.17 0 23.15 0zM7.416 22.156H3.706V9.745h3.711v12.41zM5.562 8.054c-1.192 0-2.154-1-2.154-2.234s.962-2.235 2.154-2.235c1.186 0 2.148 1 2.148 2.235 0 1.228-.962 2.234-2.148 2.234zm15.742 14.102h-3.706v-6.033c0-1.437-.025-3.29-1.93-3.29-1.928 0-2.22 1.569-2.22 3.188v6.135H9.745V9.745h3.555v1.696h.049c.493-.975 1.704-2.006 3.505-2.006 3.755 0 4.449 2.57 4.449 5.911v6.81z" fill="#161722"/></g><defs><clipPath id="a"><path fill="#fff" d="M0 0h25v26H0z"/></clipPath></defs></svg>