<svg width="26" height="26" fill="none" xmlns="http://www.w3.org/2000/svg"><g clip-path="url(#a)"><path d="M8.18 23.563c9.808 0 15.175-8.129 15.175-15.176 0-.228-.005-.462-.015-.69A10.833 10.833 0 0 0 26 4.934c-.972.433-2.005.715-3.062.838a5.363 5.363 0 0 0 2.346-2.95 10.723 10.723 0 0 1-3.386 1.294 5.341 5.341 0 0 0-9.093 4.864A15.15 15.15 0 0 1 1.812 3.412a5.34 5.34 0 0 0 1.65 7.118 5.34 5.34 0 0 1-2.416-.665v.066a5.332 5.332 0 0 0 4.28 5.23 5.302 5.302 0 0 1-2.407.092A5.345 5.345 0 0 0 7.9 18.96 10.698 10.698 0 0 1 0 21.167a15.132 15.132 0 0 0 8.18 2.395z" fill="#161722"/></g><defs><clipPath id="a"><path fill="#fff" d="M0 0h26v26H0z"/></clipPath></defs></svg>