<svg width="132" height="27" fill="none" xmlns="http://www.w3.org/2000/svg"><g clip-path="url(#a)" fill="#fff"><path d="M131.766 20.419v3.266h-2.74c-2.924-.092-4.486-1.67-4.486-4.637v-7.46h-1.914V8.722h1.914V5.514h4.043V8.69h3.091v2.857h-3.091v7.101c0 .961.192 1.73 1.671 1.73l1.512.042zM106.511 16.233v-.218a7.305 7.305 0 0 1 4.216-6.959 7.308 7.308 0 0 1 2.776-.677h.585c3.818 0 7.168 2.223 7.168 7.52v1.127h-10.61c.109 2.44 1.429 3.818 3.651 3.818 1.913 0 2.807-.835 3.066-2.055h3.818c-.468 3.183-3.008 4.954-7.026 4.954-4.411-.033-7.644-2.824-7.644-7.51zm10.768-1.763c-.142-2.223-1.261-3.292-3.208-3.292-1.946 0-3.066 1.203-3.341 3.292h6.549zM90.002 16.233v-.218a7.31 7.31 0 0 1 6.976-7.636h.585c3.818 0 7.176 2.223 7.176 7.52v1.127H94.138c.108 2.44 1.428 3.818 3.65 3.818 1.914 0 2.808-.835 3.067-2.055h3.818c-.477 3.183-3.016 4.954-7.035 4.954-4.403-.033-7.636-2.824-7.636-7.51zm10.769-1.763c-.142-2.223-1.261-3.292-3.208-3.292-1.947 0-3.033 1.237-3.342 3.283l6.55.009zM66.835 8.688h4.278l2.615 9.909 2.865-9.909h3.342l2.59 9.909 2.757-9.909H89.2L84.555 23.41h-4.01l-2.506-9.24-2.682 9.24h-4.06l-4.462-14.72zM53.243 18.78h3.818c.175 1.33.835 2.09 2.59 2.09 1.57 0 2.297-.594 2.297-1.605 0-1.01-.835-1.437-2.974-1.737-3.918-.593-5.43-1.721-5.43-4.595 0-3.066 2.807-4.587 5.848-4.587 3.266 0 5.73 1.187 6.082 4.57h-3.768a1.987 1.987 0 0 0-2.18-1.796H59.4c-1.32 0-2.089.618-2.089 1.52 0 .903.71 1.295 2.866 1.604 3.66.552 5.706 1.48 5.706 4.629 0 3.15-2.314 4.837-6.19 4.837-3.877 0-6.342-1.746-6.45-4.93zM37.018 8.688h4.044v2.331a5.062 5.062 0 0 1 4.77-2.673c2.866 0 4.946 1.746 4.946 5.731v9.365h-3.993v-8.78c0-1.997-.777-2.95-2.582-2.95a2.906 2.906 0 0 0-3.15 2.658c-.02.177-.02.357 0 .534v8.505h-4.035V8.689zM29.215 4.988a2.038 2.038 0 1 1 2.106 1.963h-.075a1.905 1.905 0 0 1-2.022-1.788 1.239 1.239 0 0 1-.009-.175zm0 3.7h4.086V23.41h-4.069l-.017-14.72zM13.818 3.292h12.916v3.567H18.38v5.322h6.617v3.433H18.37v7.795h-4.553V3.292zM6.024 9.875c0 1.261 0 2.799-1.738 3.425 1.78.61 1.738 1.905 1.738 3.258v5.013c0 .952.384 1.529 1.069 1.671.15.05.309.073.468.067h1.67v3.342H6.476c-2.941 0-4.562-1.671-4.562-4.77v-5.932a1.22 1.22 0 0 0-1.195-1.137H0V11.88h.718a1.211 1.211 0 0 0 1.195-1.17V4.695C1.913 1.645 3.501 0 6.475 0h2.782v3.292H7.586a1.52 1.52 0 0 0-.468.075c-.685.175-1.07.743-1.07 1.67l-.024 4.838z"/></g><defs><clipPath id="a"><path fill="#fff" d="M0 0h132v26.734H0z"/></clipPath></defs></svg>