<svg width="140" height="29" fill="none" xmlns="http://www.w3.org/2000/svg"><g clip-path="url(#a)" fill="#FFD0A0"><path d="M139.752 21.656v3.464h-2.906c-3.102-.097-4.759-1.772-4.759-4.917V12.29h-2.029V9.25h2.029V5.849h4.289v3.367h3.278v3.03h-3.278v7.532c0 1.02.204 1.834 1.772 1.834l1.604.045zM112.966 17.216v-.23a7.757 7.757 0 0 1 2.027-5.589 7.753 7.753 0 0 1 5.389-2.51h.62c4.05 0 7.603 2.357 7.603 7.975v1.196h-11.253c.115 2.588 1.515 4.05 3.872 4.05 2.029 0 2.977-.887 3.252-2.18h4.049c-.496 3.376-3.19 5.254-7.452 5.254-4.678-.035-8.107-2.995-8.107-7.966zm11.421-1.87c-.15-2.356-1.338-3.49-3.402-3.49-2.065 0-3.252 1.276-3.545 3.49h6.947zM95.457 17.216v-.23a7.753 7.753 0 0 1 7.399-8.099h.62c4.049 0 7.611 2.357 7.611 7.975v1.196H99.843c.115 2.588 1.515 4.05 3.872 4.05 2.029 0 2.977-.887 3.252-2.18h4.049c-.505 3.376-3.198 5.254-7.46 5.254-4.67-.035-8.1-2.995-8.1-7.966zm11.421-1.87c-.15-2.356-1.338-3.49-3.402-3.49-2.065 0-3.217 1.311-3.544 3.482l6.946.009zM70.886 9.215h4.537l2.773 10.51 3.04-10.51h3.544l2.747 10.51 2.924-10.51h4.155L89.68 24.828h-4.253l-2.659-9.8-2.844 9.8h-4.306L70.886 9.215zM56.47 19.919h4.049c.186 1.409.886 2.215 2.747 2.215 1.666 0 2.437-.629 2.437-1.701s-.887-1.524-3.155-1.843c-4.156-.63-5.76-1.825-5.76-4.873 0-3.252 2.978-4.865 6.203-4.865 3.465 0 6.079 1.258 6.45 4.847h-3.995a2.108 2.108 0 0 0-2.313-1.905H63c-1.4 0-2.215.655-2.215 1.612 0 .957.753 1.374 3.039 1.702 3.881.584 6.052 1.568 6.052 4.909 0 3.34-2.455 5.13-6.566 5.13s-6.725-1.852-6.84-5.228zM39.262 9.215h4.289v2.472a5.37 5.37 0 0 1 5.06-2.835c3.038 0 5.245 1.852 5.245 6.078v9.933H49.62v-9.312c0-2.118-.824-3.128-2.738-3.128a3.084 3.084 0 0 0-3.34 2.818 2.434 2.434 0 0 0 0 .567v9.02h-4.28V9.215zM30.986 5.29a2.163 2.163 0 1 1 2.233 2.082h-.08a2.02 2.02 0 0 1-2.144-1.896 1.315 1.315 0 0 1-.009-.186zm0 3.925h4.333v15.613h-4.315l-.018-15.613zM14.656 3.491h13.698v3.784h-8.86v5.644h7.017v3.642h-7.026v8.267h-4.83V3.49zM6.389 10.473c0 1.338 0 2.969-1.843 3.633 1.887.647 1.843 2.02 1.843 3.456v5.316c0 1.01.407 1.622 1.134 1.773.16.053.328.078.496.07h1.772v3.545H6.867c-3.119 0-4.838-1.772-4.838-5.06v-6.29A1.294 1.294 0 0 0 .762 15.71H0V12.6h.762a1.285 1.285 0 0 0 1.267-1.24V4.98C2.03 1.746 3.713 0 6.867 0h2.95v3.491H8.047c-.169 0-.336.028-.497.08-.726.186-1.134.788-1.134 1.772l-.026 5.13z"/></g><defs><clipPath id="a"><path fill="#fff" d="M0 0h140v28.354H0z"/></clipPath></defs></svg>