<svg width="24" height="24" fill="none" xmlns="http://www.w3.org/2000/svg"><g clip-path="url(#a)" fill="#161722"><path d="M23.25 6.188c-.478.013-.948.13-1.377.34-.925.463-1.436 1.341-1.436 2.472v2.767l-.902.902c-.178-1.177-1.179-1.858-1.223-1.887a.562.562 0 0 0-.71.07l-4.5 4.5a.562.562 0 0 0-.165.398v7.5a.562.562 0 1 0 1.126 0v-7.267l3.957-3.957c.182.208.378.513.412.884.049.524-.23 1.093-.83 1.692l-2.25 2.25a.562.562 0 0 0 .796.796l2.25-2.25 3-3a.563.563 0 0 0 .165-.398V9c0-.7.256-1.175.785-1.451.109-.056.222-.103.34-.138v5.885l-3.62 4.344a.562.562 0 0 0-.13.36v5.25a.562.562 0 1 0 1.125 0v-5.046l3.62-4.344a.562.562 0 0 0 .13-.36V6.75a.563.563 0 0 0-.563-.563zM6.398 10.852a.563.563 0 0 0-.71-.07c-.044.03-1.045.71-1.223 1.887l-.902-.902V9c0-1.131-.51-2.009-1.436-2.472a3.333 3.333 0 0 0-1.377-.34.562.562 0 0 0-.563.562v6.75c0 .132.047.259.13.36l3.62 4.344v5.046a.562.562 0 1 0 1.126 0V18a.563.563 0 0 0-.13-.36l-3.62-4.344V7.411c.106.033.21.074.31.123.548.274.815.753.815 1.466v3c0 .15.059.292.164.398l3 3 2.25 2.25a.562.562 0 0 0 .796-.796l-2.25-2.25c-.6-.599-.879-1.168-.83-1.692.034-.371.23-.676.413-.884l3.957 3.957v7.267a.562.562 0 1 0 1.124 0v-7.5c0-.15-.059-.292-.164-.398l-4.5-4.5zM9 5.063h1.313V10.5a.562.562 0 0 0 .562.563h2.25a.562.562 0 0 0 .563-.563V5.062H15a.562.562 0 0 0 .563-.562V3A.563.563 0 0 0 15 2.437h-1.313V.75a.563.563 0 0 0-.562-.563h-2.25a.562.562 0 0 0-.563.563v1.688H9A.563.563 0 0 0 8.437 3v1.5A.563.563 0 0 0 9 5.063zm.563-1.5h1.312A.562.562 0 0 0 11.438 3V1.312h1.124V3a.563.563 0 0 0 .563.563h1.313v.374h-1.313a.562.562 0 0 0-.563.563v5.438h-1.124V4.5a.563.563 0 0 0-.563-.563H9.562v-.374zM17.438 3.75a.563.563 0 0 0 .562.563h.75a.562.562 0 1 0 0-1.125H18a.562.562 0 0 0-.563.562zM17.297 1.688a.56.56 0 0 0 .281-.076l.65-.375a.561.561 0 1 0-.563-.974l-.65.375a.562.562 0 0 0 .282 1.05zM17.016 6.862l.65.375a.562.562 0 0 0 .562-.974l-.65-.375a.563.563 0 1 0-.562.974zM5.25 4.313H6a.563.563 0 1 0 0-1.125h-.75a.563.563 0 1 0 0 1.124zM5.773 1.237l.65.375a.562.562 0 1 0 .562-.974l-.65-.375a.563.563 0 0 0-.562.974zM6.422 5.888l-.65.375a.563.563 0 1 0 .563.974l.65-.375a.562.562 0 1 0-.563-.974z"/></g><defs><clipPath id="a"><path fill="#fff" d="M0 0h24v24H0z"/></clipPath></defs></svg>