<svg width="22" height="22" fill="none" xmlns="http://www.w3.org/2000/svg"><g clip-path="url(#a)" fill="#161722"><path d="M17.78 0c-1.832 0-2.933 1.175-3.533 2.16-.6-.985-1.7-2.16-3.532-2.16-2.43 0-4.177 2.021-4.177 4.48 0 2.668 2.07 4.396 5.203 7.012 1.906 1.59 2.065 1.752 2.506 2.13.48-.398.624-.603 2.79-2.269C19.341 9.58 22 7.405 22 4.48 22 2.051 20.235 0 17.78 0zm-1.53 10.331c-.61.47-1.29.992-2 1.588-.588-.503-1.143-.966-1.682-1.416C9.61 8.034 7.827 6.545 7.827 4.479c0-1.818 1.241-3.19 2.888-3.19 1.783 0 2.59 1.69 2.853 2.416l.154.42h1.05l.154-.42c.264-.726 1.07-2.416 2.853-2.416 1.671 0 2.931 1.372 2.931 3.19 0 2.42-2.565 4.395-4.46 5.852z"/><path d="M11.7 21.91a6.56 6.56 0 0 0 5.315-1.465l4.266-3.57a1.938 1.938 0 0 0 .269-2.748 1.93 1.93 0 0 0-2.69-.282l-2.765 2.253c-.188.156-.391.289-.606.398a1.936 1.936 0 0 0-1.91-2.23H9.977c-.444-.417-1.529-1.29-2.845-1.29-1.319 0-2.433.878-2.883 1.29H0v6.445h4.459l7.242 1.2zm-9.122-2.488H1.29v-3.867h1.29v3.867zm1.29-3.867h.925c.616-.647 1.445-1.29 2.34-1.29.89 0 1.688.632 2.29 1.29h4.155a.645.645 0 0 1 0 1.289h-3.223v1.289h3.678a4.52 4.52 0 0 0 2.883-1.042l2.745-2.236a.65.65 0 0 1 .806 1.021l-4.284 3.585a5.27 5.27 0 0 1-4.271 1.178l-7.347-1.217h-.698v-3.867z"/></g><defs><clipPath id="a"><path fill="#fff" d="M0 0h22v22H0z"/></clipPath></defs></svg>