<svg xmlns="http://www.w3.org/2000/svg" width="187" height="140" fill="none"><path fill="#FFF5EB" d="M77.166 33.466c0-9.296-3.38-17.29-10.139-23.984C60.644 3.161 52.57 0 42.807 0 29.29 0 18.775 4.648 11.265 13.944 3.755 23.612 0 34.768 0 47.41c0 19.336 5.82 36.813 17.46 52.43 11.641 15.99 24.972 29.376 39.992 40.16l19.15-18.964c-4.881-4.834-10.701-10.784-17.46-17.849-6.76-7.065-10.139-14.316-10.139-21.753 0-4.834 2.253-9.11 6.759-12.828 4.882-3.719 9.575-8.181 14.081-13.387 4.882-5.206 7.323-12.457 7.323-21.753Zm109.834 0c0-9.296-3.38-17.29-10.139-23.984C170.478 3.161 162.405 0 152.642 0c-13.519 0-24.033 4.648-31.543 13.944-7.51 9.668-11.265 20.824-11.265 33.466 0 19.336 5.821 36.813 17.461 52.43 11.641 15.99 24.971 29.376 39.991 40.16l19.151-18.964c-4.882-4.834-10.702-10.784-17.461-17.849-6.759-7.065-10.139-14.316-10.139-21.753 0-4.834 2.253-9.11 6.759-12.828 4.882-3.719 9.576-8.181 14.082-13.387C184.559 50.013 187 42.762 187 33.466Z"/></svg>